<?xml version="1.0" encoding="UTF-8"?>
<svg xmlns="http://www.w3.org/2000/svg" version="1.1" viewBox="0 0 1089.4 194.2">
    <!-- Generator: Adobe Illustrator 28.7.7, SVG Export Plug-In . SVG Version: 1.2.0 Build 194)  -->
    <g>
          <g id="Layer_1">
                  <g>
                            <rect x="0" y="157.3" width="236.3" height="24.9"/>
                            <path d="M201.6,146h34.8v-49.8h-54.7l41.7-41.7-35.2-35.2-45,45V0h-49.8v64.5L48.2,19.4,13,54.5l41.7,41.7H0v49.8h36c42.4-.5,76.2-34.9,76.6-77.4v-6.1h11.2v6.1c.4,42.7,34.6,77.4,77.3,77.4"/>
                  </g>
                  <g>
                            <rect x="-43.3" y="3099.3" width="1201" height="126.4"/>
                            <path d="M980.8,3041.5h176.7v-252.8h-278.1l211.8-211.8-178.8-178.8-228.9,228.9v-327.3h-252.8v327.6l-229.2-229.2-178.8,178.8,211.8,211.8H-43.6v252.8h183c215.3-2.3,387.2-177.6,389.2-393.4l.3-30.9h56.5v30.9c2,217.1,175.8,393.1,392.9,393.4"/>
                  </g>
                  <rect x="-705.5" y="2640.2" width="142.6" height="73.4"/>
                  <g>
                            <path d="M293.4,181.9v-3.4l58.1-158.9h38.2l58.1,158.9v3.4h-34.6l-12.3-36.2h-61.1l-12.3,36.2h-34.3ZM347.9,120.2h45.1l-21.4-63.7h-2.3l-21.4,63.7Z"/>
                            <path d="M437.7,63.9h29.7l17,79.2h2.3l22.1-79.2h28.1l22.1,79.2h2.3l17-79.2h29.4v3.4l-27.6,114.6h-34.7l-21.5-77.5h-2.3l-21.5,77.5h-34.8l-27.5-114.6v-3.4Z"/>
                            <path d="M614.1,99.4v-3.4c2.6-21.3,22.4-34.8,52.8-34.8s51,13.5,51,45v46.7c0,11.5.7,19.4,3.4,25.7v3.4h-31.2c-1.1-3.6-1.7-7.5-1.7-12.8h-2.3c-5.7,7.7-15,14.9-34.9,14.9s-43.9-13.7-43.9-36.2,18.1-33.6,40.9-35.9l26.8-2.6c7.9-.8,11.8-3.3,11.8-9.9,0-9.9-7.4-15.3-20.6-15.3s-21.7,5.3-22.2,15.4h-30ZM659.4,161.5c12.4,0,27.3-7,27.3-28.5v-7h-2.3c-3.6,1.9-7.7,2.9-14.9,3.7l-12.7,1.4c-9.8,1-17,5.2-17,15.1s7.3,15.3,19.6,15.3Z"/>
                            <path d="M801.7,115.2l51.2,63.3v3.4h-35.5l-36.6-46.9-12.7,12.1v34.8h-32.8V19.6h32.8v88.3h2.3l45.9-44.1h36.2v3.4l-50.6,47.9Z"/>
                            <path d="M907.4,61.2c35.9,0,57,21.1,57,57.4v12.4h-85.2c.5,17.7,10.1,30.3,28.1,30.3s24.3-9.6,25.9-17.2h28.8v3.4c-3.4,16.2-17.7,37.2-54.3,37.2s-60.2-20.6-60.2-61.8,23.7-61.6,59.8-61.6ZM933.3,110c-.2-14.8-8.2-25.8-26.3-25.8s-26.1,11.5-27.5,25.8h53.7Z"/>
                            <path d="M976.4,63.9h31.8v13.9h2.3c3.9-6.2,13.4-16.1,35.3-16.1s43.7,15,43.7,42.7v77.5h-33.2v-75.6c0-13.5-7.8-20.2-20.3-20.2s-26.4,7.9-26.4,27.8v67.9h-33.1V63.9Z"/>
                  </g>
          </g>
    </g>
</svg>
